<svg width="680" height="260" viewBox="0 0 680 260" xmlns="http://www.w3.org/2000/svg" font-family="-apple-system, 'Instrument Sans', system-ui, sans-serif">
  <rect width="680" height="260" fill="#131420"/>

  <text x="340" y="20" font-size="11" fill="#4a5568" text-anchor="middle" letter-spacing="0.08em">ISLANDS ARCHITECTURE — PARTIAL HYDRATION</text>

  <!-- Page outline -->
  <rect x="40" y="34" width="600" height="200" rx="8" fill="#1a1b2e" stroke="#1d242f" stroke-width="1"/>

  <!-- Nav bar — static -->
  <rect x="52" y="46" width="576" height="28" rx="4" fill="#1f2035" stroke="#1d242f"/>
  <rect x="64" y="53" width="40" height="14" rx="2" fill="#1d242f"/>
  <text x="84" y="64" font-size="9" fill="#4a5568" text-anchor="middle">logo</text>
  <rect x="450" y="53" width="40" height="14" rx="2" fill="#1d242f"/>
  <rect x="496" y="53" width="40" height="14" rx="2" fill="#1d242f"/>
  <rect x="542" y="53" width="40" height="14" rx="2" fill="#1d242f"/>
  <text x="465" y="64" font-size="9" fill="#4a5568" text-anchor="middle">nav</text>
  <text x="340" y="68" font-size="8" fill="#4a5568" text-anchor="middle">static HTML — no JS</text>

  <!-- Hero text — static -->
  <rect x="52" y="82" width="350" height="54" rx="4" fill="#1f2035" stroke="#1d242f"/>
  <rect x="64" y="92" width="260" height="10" rx="2" fill="#1d242f"/>
  <rect x="64" y="108" width="200" height="8" rx="2" fill="#1d242f"/>
  <rect x="64" y="122" width="180" height="8" rx="2" fill="#1d242f"/>
  <text x="227" y="148" font-size="8" fill="#4a5568" text-anchor="middle">static text — no JS</text>

  <!-- Search box — ISLAND -->
  <rect x="414" y="82" width="214" height="54" rx="4" fill="#1f2035" stroke="#ff3c00" stroke-width="1.5"/>
  <rect x="426" y="94" width="150" height="20" rx="3" fill="#131420" stroke="#ff3c00" stroke-width="0.5"/>
  <text x="501" y="108" font-size="9" fill="#ff3c00" text-anchor="middle">🔍 Search…</text>
  <rect x="582" y="94" width="34" height="20" rx="3" fill="#ff3c00" fill-opacity="0.2" stroke="#ff3c00" stroke-width="0.5"/>
  <text x="599" y="108" font-size="9" fill="#ff3c00" text-anchor="middle">Go</text>
  <text x="521" y="130" font-size="8" fill="#ff3c00" text-anchor="middle">🏝 island — JS + hydration</text>

  <!-- Article grid — static -->
  <rect x="52" y="148" width="168" height="70" rx="4" fill="#1f2035" stroke="#1d242f"/>
  <rect x="62" y="158" width="148" height="30" rx="2" fill="#1d242f"/>
  <rect x="62" y="196" width="100" height="8" rx="2" fill="#1d242f"/>

  <rect x="228" y="148" width="168" height="70" rx="4" fill="#1f2035" stroke="#1d242f"/>
  <rect x="238" y="158" width="148" height="30" rx="2" fill="#1d242f"/>
  <rect x="238" y="196" width="100" height="8" rx="2" fill="#1d242f"/>

  <!-- Cart island -->
  <rect x="404" y="148" width="224" height="70" rx="4" fill="#1f2035" stroke="#ff3c00" stroke-width="1.5"/>
  <text x="516" y="172" font-size="11" fill="#ff3c00" text-anchor="middle">🛒 Cart (3 items)</text>
  <rect x="426" y="182" width="80" height="20" rx="3" fill="#ff3c00" fill-opacity="0.15" stroke="#ff3c00" stroke-width="0.5"/>
  <text x="466" y="196" font-size="9" fill="#ff3c00" text-anchor="middle">Checkout →</text>
  <text x="516" y="212" font-size="8" fill="#ff3c00" text-anchor="middle">🏝 island — JS + hydration</text>

  <!-- Legend -->
  <rect x="40" y="244" width="14" height="10" rx="2" fill="#1d242f"/>
  <text x="58" y="253" font-size="10" fill="#4a5568">static HTML (zero JS)</text>
  <rect x="220" y="244" width="14" height="10" rx="2" fill="#1f2035" stroke="#ff3c00" stroke-width="1.5"/>
  <text x="238" y="253" font-size="10" fill="#ff3c00">Interactive island (JS loaded individually)</text>
</svg>
